HIERARCHY
ROOT Hips
{
	OFFSET 0.000000 0.000000 0.000000
	CHANNELS 6 Xposition Yposition Zposition Xrotation Yrotation Zrotation
	JOINT Chest
	{
		OFFSET 0.000000 0.009282 11.569106
		CHANNELS 3 Xrotation Yrotation Zrotation
		JOINT Chest2
		{
			OFFSET 0.000000 -0.016863 9.269641
			CHANNELS 3 Xrotation Yrotation Zrotation
			JOINT Chest3
			{
				OFFSET 0.000000 0.000000 8.374491
				CHANNELS 3 Xrotation Yrotation Zrotation
				JOINT Chest4
				{
					OFFSET 0.000000 0.000000 8.374493
					CHANNELS 3 Xrotation Yrotation Zrotation
					JOINT Neck
					{
						OFFSET 0.000000 -0.000001 12.152554
						CHANNELS 3 Xrotation Yrotation Zrotation
						JOINT Head
						{
							OFFSET 0.000000 -0.040100 7.802319
							CHANNELS 3 Xrotation Yrotation Zrotation
							End Site
							{
								OFFSET 0.000000 -0.020946 14.853096
							}
						}
					}
					JOINT RightCollar
					{
						OFFSET -2.894404 0.000000 6.791374
						CHANNELS 3 Xrotation Yrotation Zrotation
						JOINT RightShoulder
						{
							OFFSET -13.574684 0.000000 0.000000
							CHANNELS 3 Xrotation Yrotation Zrotation
							JOINT RightElbow
							{
								OFFSET -23.923903 0.000000 0.000000
								CHANNELS 3 Xrotation Yrotation Zrotation
								JOINT RightWrist
								{
									OFFSET -19.846718 -0.012765 0.000000
									CHANNELS 3 Xrotation Yrotation Zrotation
									End Site
									{
										OFFSET -14.973145 0.000000 0.000000
									}
								}
							}
						}
					}
					JOINT LeftCollar
					{
						OFFSET 2.894404 0.000000 6.791374
						CHANNELS 3 Xrotation Yrotation Zrotation
						JOINT LeftShoulder
						{
							OFFSET 13.574684 0.000000 0.000000
							CHANNELS 3 Xrotation Yrotation Zrotation
							JOINT LeftElbow
							{
								OFFSET 23.923903 0.000000 0.000000
								CHANNELS 3 Xrotation Yrotation Zrotation
								JOINT LeftWrist
								{
									OFFSET 19.846718 -0.012765 0.000000
									CHANNELS 3 Xrotation Yrotation Zrotation
									End Site
									{
										OFFSET 14.973145 0.000000 0.000000
									}
								}
							}
						}
					}
				}
			}
		}
	}
	JOINT RightHip
	{
		OFFSET -9.469263 -0.004642 0.045487
		CHANNELS 3 Xrotation Yrotation Zrotation
		JOINT RightKnee
		{
			OFFSET 0.000000 -0.002666 -40.478676
			CHANNELS 3 Xrotation Yrotation Zrotation
			JOINT RightAnkle
			{
				OFFSET 0.000000 -0.049110 -35.224068
				CHANNELS 3 Xrotation Yrotation Zrotation
				JOINT RightToe
				{
					OFFSET 0.000000 -12.539530 -6.151390
					CHANNELS 3 Xrotation Yrotation Zrotation
					End Site
					{
						OFFSET 0.000000 -5.044995 -1.291870
					}
				}
			}
		}
	}
	JOINT LeftHip
	{
		OFFSET 9.469263 -0.004642 0.045487
		CHANNELS 3 Xrotation Yrotation Zrotation
		JOINT LeftKnee
		{
			OFFSET 0.000000 -0.002666 -40.478676
			CHANNELS 3 Xrotation Yrotation Zrotation
			JOINT LeftAnkle
			{
				OFFSET 0.000000 -0.049110 -35.224068
				CHANNELS 3 Xrotation Yrotation Zrotation
				JOINT LeftToe
				{
					OFFSET 0.000000 -12.539530 -6.151390
					CHANNELS 3 Xrotation Yrotation Zrotation
					End Site
					{
						OFFSET 0.000000 -5.044995 -1.291870
					}
				}
			}
		}
	}
}
MOTION
Frames: 9
Frame Time: 0.016667
-10.042400 -6.388363 83.498680 1.330814 2.477186 -112.768855 4.288172 0.483894 -1.934345 1.845008 0.323026 -0.831154 1.845008 0.323026 -0.831153 1.383316 0.244782 -0.622392 16.572421 -0.444487 -0.546493 -5.410618 -0.616545 -1.153150 -5.590989 -8.895523 4.414623 22.130356 -44.233439 3.759722 64.057612 10.110405 59.617955 -50.283142 23.295885 89.071227 -7.026515 7.143460 4.430109 15.495275 43.574425 -0.338153 71.010150 15.011586 -52.817043 -15.923345 -18.411063 -66.209340 0.840306 -1.396591 -5.847274 6.101161 -3.315637 -8.364070 -1.488205 4.473840 -8.854859 -0.559291 -0.521272 0.603888 3.248657 1.586280 13.400807 0.855002 2.072583 10.051774 -1.356173 -3.578563 11.609848 0.003246 -0.199126 -0.173795 
-10.042400 -6.388363 83.498680 1.330814 2.477186 -112.768855 4.288172 0.483894 -1.934345 1.845008 0.323026 -0.831154 1.845008 0.323026 -0.831153 1.383316 0.244782 -0.622392 16.572421 -0.444487 -0.546493 -5.410618 -0.616545 -1.153150 -5.590989 -8.895523 4.414623 22.130356 -44.233439 3.759722 64.057612 10.110405 59.617955 -50.283142 23.295885 89.071227 -7.026515 7.143460 4.430109 15.495275 43.574425 -0.338153 71.010150 15.011586 -52.817043 -15.923345 -18.411063 -66.209340 0.840306 -1.396591 -5.847274 6.101161 -3.315637 -8.364070 -1.488205 4.473840 -8.854859 -0.559291 -0.521272 0.603888 3.248657 1.586280 13.400807 0.855002 2.072583 10.051774 -1.356173 -3.578563 11.609848 0.003246 -0.199126 -0.173795 
-9.935079 -6.206479 83.542542 1.336941 2.410552 -112.609766 4.262835 0.465790 -2.002259 1.825107 0.310357 -0.842716 1.825107 0.310357 -0.842714 1.368404 0.235287 -0.631112 16.642951 -0.448202 -0.562027 -5.279624 -0.618428 -1.182395 -5.527906 -8.896972 4.477763 22.070214 -44.220905 3.715328 64.055174 10.110686 59.658786 -50.304548 23.284190 89.076923 -6.987815 7.150021 4.454456 15.543098 43.559866 -0.432248 71.036317 15.010582 -52.773562 -15.933972 -18.392257 -66.198303 0.746109 -1.433209 -5.152035 6.287574 -3.112889 -7.507265 -1.292911 4.400781 -8.669570 -0.583829 -0.607822 0.614585 3.162850 1.332371 13.160064 0.853856 2.125327 9.978614 -1.138004 -3.300206 11.676089 -0.033116 -0.238730 -0.204071 
-9.826553 -6.045656 83.590340 1.188689 2.289907 -112.521568 4.121842 0.577064 -1.991422 1.802740 0.287982 -0.850101 1.802742 0.287982 -0.850104 1.351654 0.218496 -0.636734 16.720375 -0.441631 -0.573666 -5.135732 -0.603029 -1.200934 -5.496502 -8.884707 4.525788 22.002374 -44.197300 3.631530 64.054074 10.128922 59.716241 -50.317095 23.268974 89.079860 -6.934826 7.156274 4.464301 15.664206 43.574117 -0.605066 71.039213 15.037117 -52.707945 -15.964664 -18.390809 -66.205652 0.529547 -1.245891 -4.159155 6.492971 -2.895211 -6.545703 -1.078708 4.050902 -8.297520 -0.611688 -0.522727 0.305111 2.966275 1.212368 12.951370 0.853163 2.154176 9.929390 -0.789670 -2.927891 11.653430 -0.198054 -0.306568 -0.231569 
-9.729783 -5.843573 83.642403 1.153057 2.192169 -112.380074 4.051299 0.583960 -2.033202 1.777408 0.266376 -0.855586 1.777408 0.266376 -0.855586 1.332683 0.202273 -0.640923 16.797836 -0.433540 -0.579158 -4.991796 -0.587049 -1.207723 -5.472122 -8.877065 4.551304 21.941617 -44.153147 3.560615 64.058937 10.171073 59.774660 -50.309756 23.256782 89.077879 -6.897225 7.162351 4.476311 15.815701 43.578717 -0.783203 71.051528 15.075734 -52.663497 -16.014350 -18.398166 -66.194662 0.345867 -1.234482 -2.967196 6.793591 -2.595105 -5.394359 -0.903640 3.855426 -8.220901 -0.624613 -0.593659 0.296926 2.865151 0.968797 12.720372 0.835728 2.187219 9.837717 -0.558680 -2.467354 11.590236 -0.238614 -0.421707 -0.282302 
-9.640056 -5.664144 83.697327 1.064954 2.080490 -112.221067 3.964927 0.624493 -2.081313 1.745481 0.248484 -0.858207 1.745485 0.248484 -0.858204 1.308766 0.188818 -0.642947 16.873499 -0.436949 -0.593113 -4.851298 -0.589052 -1.234018 -5.444253 -8.858282 4.555272 21.902129 -44.105137 3.520739 64.057086 10.214155 59.830053 -50.293353 23.250507 89.070906 -6.868728 7.170016 4.445540 15.895177 43.589086 -0.867233 71.082694 15.115741 -52.636429 -16.044873 -18.413987 -66.149446 0.082989 -1.178057 -1.492815 7.192058 -2.231045 -4.042686 -0.757819 3.638632 -8.292685 -0.634319 -0.706377 0.347062 2.748961 0.752784 12.510670 0.810511 2.230128 9.507012 -0.248878 -1.892536 11.527487 -0.335939 -0.576255 -0.398938 
-9.544821 -5.489433 83.758461 0.962335 1.926005 -112.055810 3.861998 0.663014 -2.143476 1.705734 0.234182 -0.867021 1.705733 0.234182 -0.867019 1.278971 0.178058 -0.649618 16.942974 -0.447904 -0.593719 -4.722400 -0.609441 -1.238605 -5.438924 -8.855993 4.584044 21.920109 -44.043003 3.528419 64.044717 10.209084 59.870925 -50.287230 23.252997 89.072176 -6.845921 7.174176 4.425498 15.877784 43.601906 -0.860396 71.136133 15.159033 -52.618077 -16.064149 -18.427435 -66.098124 -0.253732 -1.083341 0.211963 7.663081 -1.805212 -2.289833 -0.632270 3.322073 -8.390523 -0.658976 -0.805639 0.389248 2.599323 0.578056 12.207263 0.799219 2.186967 8.941314 0.076733 -0.629786 10.916334 -0.517328 -1.202387 -0.436795 
-9.456212 -5.237662 83.824791 0.903798 1.717163 -111.923790 3.765108 0.645697 -2.155732 1.651146 0.222164 -0.869464 1.651147 0.222164 -0.869465 1.238044 0.168974 -0.651513 17.004611 -0.470138 -0.593017 -4.608181 -0.650776 -1.244773 -5.423702 -8.866366 4.559413 21.951437 -43.967273 3.568788 64.033549 10.173464 59.912357 -50.259831 23.257190 89.059438 -6.828923 7.180276 4.393011 15.832512 43.619996 -0.826355 71.189860 15.196898 -52.589779 -16.086948 -18.404561 -66.089177 -0.607328 -1.082640 2.096934 8.136009 -1.233864 -0.158380 -0.512181 2.854213 -8.388600 -0.728061 -0.849716 0.407286 2.433361 0.573223 11.745698 0.706504 2.127920 7.786204 0.618824 0.800621 9.457719 -0.833549 -2.007806 -0.339704 
-9.388274 -4.717492 83.886002 0.899049 1.411863 -111.905840 3.636896 0.560849 -2.101913 1.579293 0.207396 -0.861897 1.579291 0.207395 -0.861894 1.184177 0.157775 -0.645889 17.063151 -0.498654 -0.594377 -4.499808 -0.702829 -1.256841 -5.400947 -8.877330 4.565803 21.970282 -43.917672 3.589915 64.053978 10.137944 59.949089 -50.253062 23.245992 89.048011 -6.831486 7.192833 4.417484 15.836979 43.643669 -0.820231 71.191157 15.213292 -52.535076 -16.111194 -18.376743 -66.108486 -0.959730 -1.295992 4.238685 8.589090 -0.543938 2.238020 -0.445288 2.337134 -8.048123 -0.847123 -0.815166 0.366995 2.134948 1.031247 10.813340 0.494668 1.923228 5.843642 1.242565 1.922598 8.724711 -1.137857 -2.735619 -0.218725 
